<svg viewBox="0 0 24 24" xmlns="http://www.w3.org/2000/svg"><g fill="#2E89FF"><path opacity="0" d="M0 0h24v24H0Z" transform="translate(24 24) skewX(-.00058)"/><path d="M17 3.5v0c0-.28-.23-.5-.5-.5H14l0 0c-2.63-.14-4.86 1.88-5.01 4.49v2.7h-2.5 -.01c-.28 0-.5.22-.5.5 0 0 0 0 0 0v2.6l0 0c0 .27.22.49.5.49h2.5v6.7l0 0c0 .27.22.49.5.49h3 -.01c.27 0 .5-.23.5-.5v-6.7h2.62l0 0c.22 0 .43-.15.48-.38l.72-2.6 0-.01c.07-.27-.09-.55-.36-.62 -.05-.02-.09-.02-.13-.02h-3.35v-2.7l-.01 0c.05-.52.48-.91.99-.91h2.5l-.01-.001c.27 0 .5-.23.5-.5Z"/></g></svg>