<svg viewBox="0 0 24 24" xmlns="http://www.w3.org/2000/svg"><g fill="#3A3A3A"><path opacity="0" d="M0 0h24v24H0Z" transform="translate(24 24) skewX(-.00058)"/><path d="M12 1l0 0C5.98.93 1.06 5.75 1 11.77l-.01-.01c.02 4.68 3.05 8.81 7.51 10.23 .55.1.75-.23.75-.52v-1.83c-3.06.65-3.71-1.44-3.71-1.44l-.01-.01c-.21-.66-.64-1.22-1.23-1.58 -1-.66.08-.65.08-.65l0 0c.7.09 1.31.5 1.68 1.11l0 0c.64 1.11 2.06 1.51 3.2.88l-.01 0c.05-.55.3-1.06.69-1.45 -2.44-.27-5-1.19-5-5.32l-.01-.01c-.03-1.08.37-2.13 1.11-2.91l-.01-.01c-.34-.93-.3-1.95.11-2.84 0 0 .93-.29 3 1.1l-.01 0c1.8-.49 3.69-.49 5.5-.01 2.1-1.39 3-1.1 3-1.1l0 0c.4.89.44 1.91.1 2.84l-.01-.01c.75.77 1.17 1.81 1.17 2.89 0 4.14-2.58 5.05-5 5.32l-.01-.01c.53.52.81 1.25.75 2v2.95c0 .35.2.63.75.52l-.01 0c4.44-1.43 7.47-5.56 7.5-10.22l0 0C22.8 5.66 17.88.84 11.87.9"/></g></svg>