<svg viewBox="0 0 24 24" xmlns="http://www.w3.org/2000/svg"><path fill="#ED4956" fill-rule="evenodd" d="M8 2h8c3.31 0 6 2.68 6 6v8c0 3.31-2.69 6-6 6H8c-3.32 0-6-2.69-6-6V8c0-3.32 2.68-6 6-6Zm0 2C5.79 4 4 5.79 4 8v8c0 2.2 1.79 4 4 4h8c2.2 0 4-1.8 4-4V8c0-2.21-1.8-4-4-4H8Zm4 13c-2.77 0-5-2.24-5-5 0-2.77 2.23-5 5-5 2.76 0 5 2.23 5 5 0 2.76-2.24 5-5 5Zm0-2c1.65 0 3-1.35 3-3 0-1.66-1.35-3-3-3 -1.66 0-3 1.34-3 3 0 1.65 1.34 3 3 3Zm5-7c-.56 0-1-.45-1-1 0-.56.44-1 1-1 .55 0 1 .44 1 1 0 .55-.45 1-1 1Z"/></svg>