<svg viewBox="0 0 24 24" xmlns="http://www.w3.org/2000/svg"><g fill="#7DD2FF"><path opacity="0" d="M0 0l24 0 0 24L0 24"/><path d="M8.08 20l0 0c6.11.2 11.22-4.59 11.43-10.7 0-.11 0-.21 0-.31l-.01 0c.67-.84 1.18-1.81 1.48-2.84l0-.01c.06-.24-.08-.48-.31-.55 -.11-.03-.22-.02-.32.03l0-.01c-.73.34-1.6.19-2.16-.38l0 0c-1.45-1.59-3.91-1.7-5.5-.25 -.03.02-.06.05-.09.07l0-.01c-1.05 1-1.48 2.48-1.16 3.9 -3.35.2-5.65-1.39-7.49-3.57l0 0c-.16-.18-.43-.2-.61-.04 -.09.07-.14.17-.15.27l-.01 0c-.72 3.98 1.11 7.99 4.6 10.04l0-.01c-1.15 1.3-2.75 2.12-4.48 2.27l-.01 0c-.25.04-.42.27-.38.51 .02.13.1.25.23.32l-.01-.01c1.5.75 3.15 1.14 4.83 1.16"/></g></svg>